<svg version="1.1" viewBox="0 0 256 256" xmlns="http://www.w3.org/2000/svg">
 <defs>
  <style>.cls-1{fill:#00a9ce;}.cls-2{fill:#fff;fill-rule:evenodd;}</style>
 </defs>
 <path class="cls-1" d="m218.5-5.748e-6h-181a37.5 37.5 0 0 0 -37.5 37.5v181a37.5 37.5 0 0 0 37.5 37.5h181a37.5 37.5 0 0 0 37.5 -37.5v-181a37.5 37.5 0 0 0 -37.5 -37.5"/>
 <path class="cls-2" d="m128 220.2c40.27 0 68.03-19.13 68.03-92.22 0-73.1-27.75-92.23-68.03-92.23-40.27 0-68.04 19.13-68.04 92.23 0 73.09 27.77 92.22 68.04 92.22m-8.832-92.22-32.97-33.06 9.555-9.553 26.27 26.27v-62.97l47.76 47.76-31.54 31.54 31.54 31.54-47.76 47.76v-62.97l-26.27 26.27-9.555-9.555zm16.28 46.68 15.25-15.25-15.24-15.24zm0-93.36 15.25 15.25-15.24 15.24z"/>
<script xmlns=""/></svg>